<svg width="22" height="21" viewBox="0 0 22 21" fill="none" xmlns="http://www.w3.org/2000/svg">
<mask id="mask0_947_2859" style="mask-type:luminance" maskUnits="userSpaceOnUse" x="0" y="0" width="22" height="21">
<path d="M21.9033 0H0V20.88H21.9033V0Z" fill="white"/>
</mask>
<g mask="url(#mask0_947_2859)">
<path d="M16.9054 11.7517C15.1855 11.7517 14.0469 10.4488 13.7293 9.94412C14.1368 6.75148 15.3293 5.74209 16.9054 5.74209C18.4635 5.74209 19.6741 6.96278 19.6741 8.74682C19.6741 10.5309 18.4635 11.7517 16.9054 11.7517ZM16.9054 3.78192C14.1009 3.78192 12.5307 5.5719 12.0813 7.41467C11.5719 6.47567 11.1944 5.21975 10.9007 4.0519H7.02345V8.77621C7.02345 10.4899 6.22644 11.7575 4.66831 11.7575C3.11021 11.7575 2.2173 10.4899 2.2173 8.77621L2.23527 4.0519H0V8.77621C0 10.1554 0.455445 11.4055 1.28843 12.2974C2.14539 13.2188 3.31396 13.7 4.66831 13.7C7.36501 13.7 9.24678 11.6754 9.24678 8.77621V5.60124C9.52837 6.64586 10.1996 8.65297 11.482 10.4136L10.2835 17.0981H12.5547L13.3457 12.362C13.6034 12.5733 13.8791 12.761 14.1727 12.9313C14.9338 13.4008 15.8027 13.6649 16.7016 13.6942C16.7016 13.6942 16.8395 13.7 16.9114 13.7C19.692 13.7 21.9033 11.5932 21.9033 8.74682C21.9033 5.90055 19.686 3.78192 16.9054 3.78192Z" fill="#242424"/>
</g>
</svg>
