<svg width="22" height="22" viewBox="0 0 22 22" fill="none" xmlns="http://www.w3.org/2000/svg">
<path fill-rule="evenodd" clip-rule="evenodd" d="M4.01952 3.61671C4.0359 3.61671 4.0523 3.61671 4.06872 3.61671H6.23872C8.51159 3.61671 10.3979 5.41451 10.3979 7.68547C10.3979 8.97281 9.79174 10.1081 8.85263 10.8501C9.79174 11.592 10.3979 12.7273 10.3979 14.0146C10.3979 16.2856 8.51159 18.0834 6.23872 18.0834H4.06872C4.0523 18.0834 4.0359 18.0834 4.01952 18.0834C3.63609 18.0835 3.26346 18.0836 2.95612 18.0422C2.60964 17.9956 2.21427 17.8822 1.88586 17.5537C1.55746 17.2253 1.44396 16.83 1.39738 16.4835C1.35606 16.1762 1.35613 15.8035 1.35621 15.4201C1.35621 15.4037 1.35621 15.3873 1.35621 15.3709V6.32922C1.35621 6.3128 1.35621 6.2964 1.35621 6.28002C1.35613 5.89659 1.35606 5.52396 1.39738 5.21662C1.44396 4.87014 1.55746 4.47477 1.88586 4.14636C2.21427 3.81795 2.60964 3.70446 2.95612 3.65788C3.26346 3.61656 3.63609 3.61663 4.01952 3.61671ZM3.16455 11.7542V15.3709C3.16455 15.8227 3.16647 16.0706 3.18959 16.2425C3.18989 16.2448 3.19019 16.247 3.19049 16.2491C3.19264 16.2494 3.19484 16.2497 3.19708 16.25C3.36904 16.2731 3.61693 16.2751 4.06872 16.2751H6.23872C7.56123 16.2751 8.58956 15.2392 8.58956 14.0146C8.58956 12.7901 7.56123 11.7542 6.23872 11.7542H3.16455ZM6.23872 9.94589H3.16455V6.32922C3.16455 5.87743 3.16647 5.62954 3.18959 5.45758C3.18989 5.45534 3.19019 5.45314 3.19049 5.45099C3.19264 5.45069 3.19484 5.45039 3.19708 5.45009C3.36904 5.42697 3.61693 5.42505 4.06872 5.42505H6.23872C7.56123 5.42505 8.58956 6.46091 8.58956 7.68547C8.58956 8.91002 7.56123 9.94589 6.23872 9.94589Z" fill="white"/>
<path fill-rule="evenodd" clip-rule="evenodd" d="M13.1103 6.32946C13.1103 5.8301 13.5151 5.42529 14.0145 5.42529H17.6312C18.1305 5.42529 18.5353 5.8301 18.5353 6.32946C18.5353 6.82882 18.1305 7.23363 17.6312 7.23363H14.0145C13.5151 7.23363 13.1103 6.82882 13.1103 6.32946ZM11.302 12.6586C11.302 10.3381 13.3019 8.1378 15.8228 8.1378C18.3438 8.1378 20.3437 10.3381 20.3437 12.6586C20.3437 13.158 19.9389 13.5628 19.4395 13.5628H13.1103C13.1103 15.0609 14.3248 16.2753 15.8228 16.2753C16.8257 16.2753 17.7026 15.7315 18.173 14.9184C18.4231 14.4862 18.9762 14.3384 19.4084 14.5885C19.8407 14.8385 19.9884 15.3916 19.7383 15.8239C18.958 17.1728 17.4973 18.0836 15.8228 18.0836C13.3261 18.0836 11.302 16.0596 11.302 13.5628V12.6586ZM13.2863 11.7545H18.3594C17.9672 10.7529 16.9658 9.94613 15.8228 9.94613C14.6799 9.94613 13.6784 10.7529 13.2863 11.7545Z" fill="white"/>
</svg>
