<svg width="17" height="16" viewBox="0 0 17 16" fill="none" xmlns="http://www.w3.org/2000/svg">
<path d="M16.5141 9.67461V15.7818H12.9738V10.0846C12.9738 8.65351 12.4632 7.67626 11.1804 7.67626C10.2032 7.67626 9.62165 8.33505 9.3651 8.97198C9.27101 9.1989 9.24778 9.51476 9.24778 9.83453V15.7818H5.70623C5.70623 15.7818 5.75392 6.13175 5.70623 5.13275H9.24778V6.6423C9.24139 6.65392 9.23108 6.66535 9.22456 6.67696H9.24778V6.6423C9.7184 5.91786 10.5577 4.88249 12.4387 4.88249C14.7684 4.88249 16.5141 6.40507 16.5141 9.67461ZM2.00351 0C0.791568 0 0 0.795479 0 1.8398C0 2.86215 0.768402 3.67943 1.95712 3.67943H1.97904C3.21415 3.67943 3.98255 2.86221 3.98255 1.8398C3.95932 0.795538 3.21415 0 2.00351 0ZM0.210157 15.7818H3.74917V5.13275H0.210157V15.7818Z" fill="white"/>
</svg>
