<svg width="20" height="20" viewBox="0 0 20 20" fill="none" xmlns="http://www.w3.org/2000/svg">
<path d="M9.99976 18.958C14.9473 18.958 18.9587 14.9466 18.9587 9.99902C18.9585 5.05164 14.9472 1.04102 9.99976 1.04102C5.05249 1.04121 1.04194 5.05175 1.04175 9.99902C1.04175 11.2331 1.29136 12.4109 1.7439 13.4824C1.8626 13.7635 1.94337 13.9537 1.99683 14.0996C2.05065 14.2467 2.05824 14.3009 2.05933 14.3154C2.06474 14.3937 2.04504 14.5008 1.90991 15.0059L1.06323 18.1709C1.00558 18.3864 1.0668 18.6166 1.22437 18.7744C1.38209 18.9321 1.61238 18.994 1.82788 18.9365L4.9939 18.0898C5.49835 17.9549 5.60512 17.9351 5.68335 17.9404C5.69723 17.9414 5.75139 17.9485 5.90015 18.0029C6.04609 18.0564 6.23629 18.1362 6.51733 18.2549C7.58871 18.7074 8.7658 18.958 9.99976 18.958ZM13.3464 14.7539C12.9581 14.8351 12.6625 14.768 12.3464 14.6963L12.3025 14.6865C10.6989 14.3244 9.12632 13.4771 7.82397 12.1748C6.52187 10.8726 5.67535 9.30062 5.31323 7.69727L5.30347 7.65332C5.23169 7.337 5.16448 7.04096 5.24585 6.65234C5.30521 6.36909 5.45483 6.10547 5.61792 5.90137C5.78116 5.69716 6.00582 5.49241 6.26929 5.37207C6.63185 5.20649 7.00053 5.20733 7.40015 5.20801H7.47729C7.66094 5.20801 7.97075 5.21389 8.25659 5.33301C8.59785 5.47535 8.8789 5.76828 8.95093 6.22754L8.9519 6.23242L9.15405 7.54102C9.17632 7.69417 9.19353 7.82141 9.20483 7.9209C9.21412 8.00269 9.22499 8.11582 9.21948 8.20996C9.19553 8.61775 9.03033 8.94211 8.85815 9.19336C8.74856 9.35328 8.6015 9.52741 8.48608 9.66406C8.44087 9.7176 8.40034 9.76564 8.3689 9.80469L8.31714 9.86914C8.11916 10.115 8.02014 10.238 8.02319 10.3896C8.02631 10.5413 8.12353 10.6527 8.31812 10.875C8.44199 11.0165 8.57223 11.1555 8.70776 11.291C8.84334 11.4266 8.98222 11.5567 9.12378 11.6807C9.34617 11.8753 9.45762 11.9733 9.60913 11.9766C9.76083 11.9797 9.88458 11.8797 10.1306 11.6816L10.1951 11.6299C10.2341 11.5984 10.2822 11.5579 10.3357 11.5127C10.4723 11.3973 10.6465 11.2502 10.8064 11.1406C11.0577 10.9685 11.3821 10.8032 11.7898 10.7793C11.8838 10.7738 11.9961 10.7856 12.0779 10.7949C12.1773 10.8062 12.3047 10.8235 12.4578 10.8457C12.764 10.8902 13.1977 10.9576 13.7673 11.0469L13.7712 11.0479C14.2308 11.1199 14.5244 11.4017 14.6667 11.7432C14.7857 12.0288 14.7917 12.3378 14.7917 12.5215V12.5986C14.7924 12.9984 14.7924 13.3678 14.6267 13.7305C14.5064 13.9936 14.3024 14.2177 14.0984 14.3809C13.8942 14.5441 13.6299 14.6945 13.3464 14.7539Z" fill="white"/>
</svg>
