<svg width="16" height="16" viewBox="0 0 16 16" fill="none" xmlns="http://www.w3.org/2000/svg">
<g clip-path="url(#clip0_1517_687)">
<path d="M2.66665 11C2.66665 12.1045 3.56208 13 4.66665 13C4.66665 13.9205 5.41284 14.6667 6.33331 14.6667C7.25378 14.6667 7.99998 13.9205 7.99998 13C7.99998 13.9205 8.74618 14.6666 9.66665 14.6666C10.5871 14.6666 11.3333 13.9204 11.3333 12.9999C12.4379 12.9999 13.3333 12.1045 13.3333 10.9999C13.3333 10.6208 13.2278 10.2663 13.0446 9.96428C13.9684 9.78755 14.6666 8.97528 14.6666 7.99995C14.6666 7.02455 13.9684 6.21229 13.0446 6.03558C13.2278 5.73349 13.3333 5.37903 13.3333 4.99992C13.3333 3.89535 12.4379 2.99992 11.3333 2.99992C11.3333 2.07944 10.5871 1.33325 9.66665 1.33325C8.74618 1.33325 7.99998 2.07951 7.99998 2.99998C7.99998 2.07951 7.25378 1.33331 6.33331 1.33331C5.41284 1.33331 4.66665 2.07951 4.66665 2.99998C3.56208 2.99998 2.66665 3.89541 2.66665 4.99998C2.66665 5.37909 2.77213 5.73356 2.95534 6.03565C2.03149 6.21235 1.33331 7.02461 1.33331 8.00001C1.33331 8.97535 2.03149 9.78761 2.95534 9.96435C2.77213 10.2664 2.66665 10.6209 2.66665 11Z" stroke="#404040" stroke-width="1.38667" stroke-linecap="round" stroke-linejoin="round"/>
<path d="M5 9.66652L6.22793 5.98273C6.29087 5.79388 6.4676 5.6665 6.66667 5.6665C6.86573 5.6665 7.04247 5.79388 7.1054 5.98273L8.33333 9.66652M10.3333 5.6665V9.66652M5.66667 8.33318H7.66667" stroke="#404040" stroke-width="1.38667" stroke-linecap="round" stroke-linejoin="round"/>
</g>
<defs>
<clipPath id="clip0_1517_687">
<rect width="16" height="16" fill="white"/>
</clipPath>
</defs>
</svg>
