<svg width="16" height="16" viewBox="0 0 16 16" fill="none" xmlns="http://www.w3.org/2000/svg">
<g clip-path="url(#clip0_1517_621)">
<path d="M7.99998 14.6666C11.6819 14.6666 14.6666 11.6818 14.6666 7.99992C14.6666 4.31802 11.6819 1.33325 7.99998 1.33325C4.31808 1.33325 1.33331 4.31802 1.33331 7.99992C1.33331 11.6818 4.31808 14.6666 7.99998 14.6666Z" stroke="#404040" stroke-width="1.38667" stroke-linecap="round" stroke-linejoin="round"/>
<path d="M4.33331 13.6667L5.27073 10.1514C5.46107 9.43768 5.55624 9.08075 5.82569 8.87375C6.09514 8.66675 6.46449 8.66675 7.20318 8.66675H8.79678C9.53545 8.66675 9.90485 8.66675 10.1742 8.87375C10.4437 9.08075 10.5389 9.43768 10.7292 10.1514L11.6666 13.6667" stroke="#404040" stroke-width="1.38667" stroke-linejoin="round"/>
<path d="M6.33331 8.66659L7.38458 6.24055C7.64671 5.63569 7.77778 5.33325 7.99998 5.33325C8.22218 5.33325 8.35325 5.63569 8.61538 6.24055L9.66665 8.66659" stroke="#404040" stroke-width="1.38667" stroke-linecap="round" stroke-linejoin="round"/>
</g>
<defs>
<clipPath id="clip0_1517_621">
<rect width="16" height="16" fill="white"/>
</clipPath>
</defs>
</svg>
