<svg width="16" height="16" viewBox="0 0 16 16" fill="none" xmlns="http://www.w3.org/2000/svg">
<path d="M5.3327 8H5.33868M7.99638 8H8.00236M10.6601 8H10.666" stroke="#404040" stroke-width="1.33333" stroke-linecap="round" stroke-linejoin="round"/>
<path d="M11.9994 14C12.8208 14 13.4867 13.2325 13.4867 12.2857C13.4867 10.7872 13.4202 9.79097 14.4482 8.60609C14.7387 8.27136 14.7387 7.72864 14.4482 7.39391C13.4202 6.20903 13.4867 5.21278 13.4867 3.71429C13.4867 2.76751 12.8208 2 11.9994 2" stroke="#404040" stroke-width="1.3" stroke-linecap="round" stroke-linejoin="round"/>
<path d="M3.99939 14C3.17795 14 2.51204 13.2325 2.51204 12.2857C2.51204 10.7872 2.57857 9.79097 1.55054 8.60609C1.26012 8.27136 1.26012 7.72864 1.55054 7.39391C2.55603 6.23501 2.51204 5.22662 2.51204 3.71429C2.51204 2.76751 3.17795 2 3.99939 2" stroke="#404040" stroke-width="1.3" stroke-linecap="round" stroke-linejoin="round"/>
</svg>
