<svg width="16" height="16" viewBox="0 0 16 16" fill="none" xmlns="http://www.w3.org/2000/svg">
<path d="M1.66736 8.00008C1.66736 5.01452 1.66736 3.52174 2.59485 2.59424C3.52235 1.66675 5.01513 1.66675 8.00069 1.66675C10.9863 1.66675 12.479 1.66675 13.4065 2.59424C14.334 3.52174 14.334 5.01452 14.334 8.00008C14.334 10.9856 14.334 12.4784 13.4065 13.4059C12.479 14.3334 10.9863 14.3334 8.00069 14.3334C5.01513 14.3334 3.52235 14.3334 2.59485 13.4059C1.66736 12.4784 1.66736 10.9856 1.66736 8.00008Z" stroke="#404040" stroke-width="1.3" stroke-linejoin="round"/>
<path d="M4.33398 10.6668V8.00016M4.33398 8.00016V6.0835C4.33398 6.00611 4.33398 5.96741 4.33719 5.93482C4.36837 5.6183 4.61879 5.36788 4.93531 5.33671C4.9679 5.3335 5.00659 5.3335 5.08398 5.3335H6.00065C6.73703 5.3335 7.33398 5.93045 7.33398 6.66683C7.33398 7.40321 6.73703 8.00016 6.00065 8.00016H4.33398Z" stroke="#404040" stroke-width="1.3" stroke-linecap="round" stroke-linejoin="round"/>
<path d="M11.6446 7.48176C11.5289 7.01785 10.9861 6.66675 10.334 6.66675C9.59762 6.66675 9.00067 7.11446 9.00067 7.66675C9.00067 8.21903 9.59762 8.66675 10.334 8.66675C11.0704 8.66675 11.6673 9.11446 11.6673 9.66675C11.6673 10.219 11.0704 10.6667 10.334 10.6667C9.67956 10.6667 9.13524 10.3131 9.02221 9.84675" stroke="#404040" stroke-width="1.3" stroke-linecap="round"/>
</svg>
