<svg width="16" height="16" viewBox="0 0 16 16" fill="none" xmlns="http://www.w3.org/2000/svg">
<path d="M14 2.66675C10.6667 2.66675 9.31947 5.36115 8 8.00008C6.68054 10.639 5.33333 13.3334 2 13.3334" stroke="#404040" stroke-width="1.4" stroke-linecap="round" stroke-linejoin="round"/>
<path d="M6.66669 13.3333H8.00002M10 13.3333L11.3334 13.3333M11.3334 13.3333C11.3334 14.0697 11.9303 14.6667 12.6667 14.6667C13.4031 14.6667 14 14.0697 14 13.3333C14 12.597 13.4031 12 12.6667 12C11.9303 12 11.3334 12.597 11.3334 13.3333Z" stroke="#404040" stroke-width="1.4" stroke-linecap="round" stroke-linejoin="round"/>
<path d="M8 2.66659H9.33333M4.66667 2.66659L6 2.66659M4.66667 2.66659C4.66667 3.40297 4.06971 3.99992 3.33333 3.99992C2.59695 3.99992 2 3.40297 2 2.66659C2 1.93021 2.59695 1.33325 3.33333 1.33325C4.06971 1.33325 4.66667 1.93021 4.66667 2.66659Z" stroke="#404040" stroke-width="1.4" stroke-linecap="round" stroke-linejoin="round"/>
</svg>
