<svg width="16" height="16" viewBox="0 0 16 16" fill="none" xmlns="http://www.w3.org/2000/svg">
<g clip-path="url(#clip0_1517_632)">
<path d="M7.99935 8.66659L11.3327 11.6666M7.99935 8.66659L4.66602 11.6666M7.99935 8.66659V5.33325" stroke="#404040" stroke-width="1.4"/>
<path d="M12.127 10.9638C12.4714 10.7658 12.6436 10.6667 12.8327 10.6667C13.0218 10.6667 13.194 10.7658 13.5383 10.9638L13.9604 11.2065C14.3048 11.4046 14.4769 11.5036 14.5715 11.6667C14.666 11.8299 14.666 12.0279 14.666 12.424V12.9095C14.666 13.3056 14.666 13.5036 14.5715 13.6667C14.4769 13.8299 14.3048 13.9289 13.9604 14.1269L13.5383 14.3697C13.194 14.5677 13.0218 14.6667 12.8327 14.6667C12.6436 14.6667 12.4714 14.5677 12.127 14.3697L11.705 14.1269C11.3606 13.9289 11.1884 13.8299 11.0939 13.6667C10.9994 13.5036 10.9994 13.3056 10.9994 12.9095V12.424C10.9994 12.0279 10.9994 11.8299 11.0939 11.6667C11.1884 11.5036 11.3606 11.4046 11.705 11.2066L12.127 10.9638Z" stroke="#404040" stroke-width="1.4"/>
<path d="M2.46039 10.9638C2.80477 10.7658 2.97696 10.6667 3.16604 10.6667C3.35511 10.6667 3.52731 10.7658 3.87169 10.9638L4.29372 11.2065C4.6381 11.4046 4.81029 11.5036 4.90483 11.6667C4.99937 11.8299 4.99937 12.0279 4.99937 12.424V12.9095C4.99937 13.3056 4.99937 13.5036 4.90483 13.6667C4.81029 13.8299 4.6381 13.9289 4.29372 14.1269L3.87169 14.3697C3.52731 14.5677 3.35511 14.6667 3.16604 14.6667C2.97696 14.6667 2.80477 14.5677 2.46039 14.3697L2.03835 14.1269C1.69397 13.9289 1.52178 13.8299 1.42724 13.6667C1.3327 13.5036 1.3327 13.3056 1.3327 12.9095V12.424C1.3327 12.0279 1.3327 11.8299 1.42724 11.6667C1.52178 11.5036 1.69397 11.4046 2.03835 11.2066L2.46039 10.9638Z" stroke="#404040" stroke-width="1.4"/>
<path d="M7.2937 1.63034C7.63808 1.43228 7.81027 1.33325 7.99935 1.33325C8.18843 1.33325 8.36062 1.43228 8.705 1.63034L9.12703 1.87305C9.47141 2.07111 9.6436 2.17014 9.73814 2.33325C9.83268 2.49636 9.83268 2.69442 9.83268 3.09054V3.57597C9.83268 3.97208 9.83268 4.17014 9.73814 4.33325C9.6436 4.49636 9.47141 4.59539 9.12703 4.79345L8.705 5.03617C8.36062 5.23422 8.18843 5.33325 7.99935 5.33325C7.81027 5.33325 7.63808 5.23422 7.2937 5.03617L6.87167 4.79345C6.52728 4.59539 6.35509 4.49636 6.26055 4.33325C6.16602 4.17014 6.16602 3.97208 6.16602 3.57597V3.09054C6.16602 2.69442 6.16602 2.49636 6.26055 2.33325C6.35509 2.17014 6.52728 2.07111 6.87167 1.87305L7.2937 1.63034Z" stroke="#404040" stroke-width="1.4"/>
</g>
<defs>
<clipPath id="clip0_1517_632">
<rect width="16" height="16" fill="white"/>
</clipPath>
</defs>
</svg>
