<svg width="16" height="16" viewBox="0 0 16 16" fill="none" xmlns="http://www.w3.org/2000/svg">
<path d="M10.947 4.66659C11.1212 3.87856 11.6737 2.53619 11.0259 1.82127C10.5837 1.33325 9.7519 1.33325 8.08836 1.33325L7.91034 1.33325C6.2468 1.33325 5.41503 1.33325 4.9728 1.82127C4.32495 2.53619 4.8775 3.87856 5.05171 4.66659" stroke="#404040" stroke-width="1.3" stroke-linecap="round" stroke-linejoin="round"/>
<path d="M12.0039 9.7685L9.19055 13.5723C8.65094 14.3019 8.38113 14.6667 7.99937 14.6667C7.61762 14.6667 7.34781 14.3019 6.8082 13.5723L3.99487 9.7685C3.54374 9.15854 3.31818 8.85356 3.33343 8.52857C3.34868 8.20358 3.64999 7.86313 4.25261 7.18223L4.25261 7.18223C4.83342 6.52598 5.05173 5.8464 5.05173 4.66705L10.947 4.66675C10.947 5.8461 11.1655 6.5258 11.7462 7.18214C12.3488 7.86318 12.6501 8.20371 12.6653 8.52866C12.6805 8.85361 12.455 9.15858 12.0039 9.7685Z" stroke="#404040" stroke-width="1.3" stroke-linecap="round" stroke-linejoin="round"/>
<path d="M6.99936 9.33325C7.29353 9.54525 7.63507 9.66659 7.99936 9.66659C8.36365 9.66659 8.70519 9.54525 8.99936 9.33325M7.99936 9.66659L7.99936 14.6666" stroke="#404040" stroke-width="1.3" stroke-linecap="round"/>
</svg>
