<svg width="17" height="13" viewBox="0 0 17 13" fill="none" xmlns="http://www.w3.org/2000/svg">
<path d="M0 12.7204V0.206718C0 0.121619 0.0355711 0.0729715 0.11857 0.0729715C1.34384 0.0729715 2.56863 0 3.79424 0C5.78296 0 7.93639 0.679981 8.69118 2.76058C8.86903 3.27131 8.96389 3.79424 8.96389 4.34149C8.96389 5.38734 8.72675 6.25073 8.25247 6.9318C6.9276 8.83414 4.63134 8.80459 2.57297 8.80459V12.7083C2.58909 12.8238 2.49058 12.8785 2.39511 12.8785H0.142284C0.047428 12.8785 0 12.8299 0 12.7204ZM2.58482 2.42005V6.50617C3.40099 6.56593 4.25503 6.57243 5.03922 6.31158C5.90492 6.06184 6.37906 5.31241 6.37906 4.41446C6.40312 3.64924 5.98616 2.91506 5.27636 2.63896C4.50159 2.31679 3.42111 2.29748 2.58482 2.42005Z" fill="#31A8FF"/>
<path d="M16.255 5.49672C15.8963 5.30762 15.5141 5.16933 15.1192 5.08552C14.6116 4.96607 12.6097 4.54782 12.6089 5.59456C12.6267 6.17901 13.5543 6.46533 13.9642 6.63228C15.4032 7.12628 17.0315 8.00939 16.9995 9.78455C17.0435 11.9944 14.9024 12.8779 13.067 12.8781C12.1115 12.888 11.1161 12.74 10.2417 12.3298C10.1582 12.2856 10.1045 12.1912 10.1081 12.0949V9.98036C10.0987 9.89553 10.1897 9.82147 10.2608 9.88245C11.1176 10.4006 12.1331 10.6521 13.1242 10.6656C13.5618 10.6656 14.429 10.6232 14.4224 9.98036C14.4224 9.36339 13.385 9.07977 12.9715 8.92305C12.3722 8.70908 11.8038 8.41266 11.2821 8.04198C10.553 7.52196 10.0956 6.68811 10.1081 5.77079C10.1038 3.68999 12.0747 2.75606 13.8497 2.75559C14.6795 2.74874 15.5705 2.8102 16.343 3.14721C16.454 3.17986 16.4771 3.29688 16.4766 3.40169V5.37923C16.4836 5.50194 16.3473 5.54374 16.255 5.49672Z" fill="#31A8FF"/>
</svg>
